<?xml version="1.0" encoding="UTF-8"?>
<svg version="1.1" viewBox="0 0 2048 1617" width="562" height="444" xmlns="http://www.w3.org/2000/svg">
<path transform="translate(869,383)" d="m0 0h221l362 1 20 2 23 5 17 6 19 10 11 8 13 11 12 12 12 16 12 21 8 21 4 13 7 40 180 1-2 4-7 9-12 13-7 8-12 14-13 14-9 11-13 14-9 11-12 13-7 8-13 15-11 12-24 28-12 13-9 11-14 15-7 8-12 14-11 12-7 9-12 13-4 5-1 3-1 242-1 20-5 30-6 20-9 20-11 18-9 12-12 13-12 11-15 10-21 11-21 8-15 4-22 4-22 2-779 1h-295l-4-1v-2l21-13 32-19 26-16 32-19 28-17 29-17 13-8 29-17 32-19 15-9 56-34 29-17 45-27 28-17 29-17 23-14 28-17 35-21 24-14 13-8 28-17 50-30 28-17 27-16 28-17 17-10 25-15 17-10 18-11 27-16 3-3-6-1-62 1-148 4-116 3h-15l-2-2 6-5 19-13 16-12 19-13 16-12 19-13 13-10 14-10 36-26 17-12 36-26 19-14 17-12 20-14 17-12 15-11 1-3-8-7-18-13-14-10-17-12-18-13-20-14-17-12-18-13-17-12-18-13-14-10-20-14-9-7z" fill="#026D75"/>
<path transform="translate(1338,849)" d="m0 0h5v69l-1 146-2 15-3 10-6 9-4 5-12 9-11 4-9 2-14 1h-354l-82-1v-3l5-4 20-10 23-13 27-14 10-6 12-6 22-12 32-17 22-12 28-15 34-18 22-12 28-15 22-12 23-12 23-13 27-14 22-12 32-17 22-12 26-14z" fill="#82C5BE"/>
<path transform="translate(1436,491)" d="m0 0h15l13 3 8 4 9 7 6 7 5 8 4 12v20l-5 14-7 10-7 7-13 8-9 3h-22l-11-4-12-7-8-9-8-15-2-8v-17l4-13 5-9 8-9 11-7 11-4z" fill="#82C5BE"/>
</svg>
